<?xml version="1.0" standalone="no"?>
<!DOCTYPE svg PUBLIC "-//W3C//DTD SVG 1.1//EN"
  "http://www.w3.org/Graphics/SVG/1.1/DTD/svg11.dtd">
<svg width="54.17599868774414mm" height="54.17399978637695mm" viewBox="-27.08799934387207 -27.086999893188477 54.17599868774414 54.17399978637695" xmlns="http://www.w3.org/2000/svg" version="1.1">
	<title>svgOutput</title>
	<desc>made with tinkercad</desc>
<path d="M 25.04400062561035 7.322999954223633 L 24.761940002441406 8.192000389099121 L 24.562000274658203 8.807999610900879 L 23.990999221801758 10.26099967956543 L 23.334999084472656 11.678000450134277 L 22.594999313354492 13.052000045776367 L 21.774999618530273 14.380000114440918 L 20.875999450683594 15.656999588012695 L 20.296663284301758 16.384000778198242 L 19.902999877929688 16.878000259399414 L 18.857999801635742 18.038000106811523 L 17.746000289916992 19.132999420166016 L 16.570999145507812 20.15999984741211 L 16.384000778198242 20.304603576660156 L 15.336000442504883 21.114999771118164 L 14.045999526977539 21.9950008392334 L 12.706000328063965 22.79599952697754 L 11.319999694824219 23.514999389648438 L 9.894000053405762 24.149999618530273 L 8.432999610900879 24.697999954223633 L 6.940999984741211 25.158000946044922 L 5.425000190734863 25.52899932861328 L 3.8889999389648438 25.80699920654297 L 2.3389999866485596 25.993999481201172 L 0.781000018119812 26.086999893188477 L 0 26.086999893188477 L -0.7799999713897705 26.086999893188477 L -2.3389999866485596 25.993999481201172 L -3.8889999389648438 25.80699920654297 L -5.425000190734863 25.52899932861328 L -6.940999984741211 25.158000946044922 L -8.432999610900879 24.697999954223633 L -9.894000053405762 24.149999618530273 L -11.319999694824219 23.514999389648438 L -12.706000328063965 22.79599952697754 L -14.045999526977539 21.9950008392334 L -15.336000442504883 21.114999771118164 L -16.384000778198242 20.304603576660156 L -16.570999145507812 20.15999984741211 L -17.746000289916992 19.132999420166016 L -18.857999801635742 18.038000106811523 L -19.902999877929688 16.878000259399414 L -20.296663284301758 16.384000778198242 L -20.875999450683594 15.656999588012695 L -21.774999618530273 14.380000114440918 L -22.594999313354492 13.052000045776367 L -23.334999084472656 11.678000450134277 L -23.990999221801758 10.26099967956543 L -24.56100082397461 8.807999610900879 L -25.04400062561035 7.322999954223633 L -25.437000274658203 5.811999797821045 L -25.738000869750977 4.28000020980835 L -25.947999954223633 2.7330000400543213 L -26.06399917602539 1.1759999990463257 L -26.08209228515625 1.1102230246251565e-16 L -26.08799934387207 -0.38400000333786 L -26.01799964904785 -1.944000005722046 L -25.854999542236328 -3.496999979019165 L -25.599000930786133 -5.0370001792907715 L -25.25200080871582 -6.559000015258789 L -24.81399917602539 -8.057000160217285 L -24.28700065612793 -9.527000427246094 L -23.673999786376953 -10.963000297546387 L -22.975000381469727 -12.359000205993652 L -22.19499969482422 -13.711000442504883 L -21.334999084472656 -15.013999938964844 L -20.39900016784668 -16.26300048828125 L -20.296388626098633 -16.384000778198242 L -19.388999938964844 -17.45400047302246 L -18.309999465942383 -18.582000732421875 L -17.166000366210938 -19.643999099731445 L -16.384000778198242 -20.2872371673584 L -15.960000038146973 -20.63599967956543 L -14.696999549865723 -21.55299949645996 L -13.381999969482422 -22.393999099731445 L -12.017999649047852 -23.15399932861328 L -10.612000465393066 -23.83099937438965 L -9.168000221252441 -24.42300033569336 L -7.690000057220459 -24.92799949645996 L -6.185999870300293 -25.343000411987305 L -4.658999919891357 -25.667999267578125 L -3.115000009536743 -25.899999618530273 L -1.559999942779541 -26.040000915527344 L -1.585229885726902e-13 -26.086999893188477 L 1.559999942779541 -26.040000915527344 L 3.115000009536743 -25.899999618530273 L 4.658999919891357 -25.667999267578125 L 6.185999870300293 -25.343000411987305 L 7.690000057220459 -24.92799949645996 L 9.168000221252441 -24.42300033569336 L 10.612000465393066 -23.83099937438965 L 12.019000053405762 -23.15399932861328 L 13.381999969482422 -22.393999099731445 L 14.697999954223633 -21.55299949645996 L 15.960000038146973 -20.63599967956543 L 16.384000778198242 -20.2872371673584 L 17.166000366210938 -19.643999099731445 L 18.31100082397461 -18.582000732421875 L 19.388999938964844 -17.45400047302246 L 20.296388626098633 -16.384000778198242 L 20.39900016784668 -16.26300048828125 L 21.334999084472656 -15.013999938964844 L 22.19499969482422 -13.711000442504883 L 22.97599983215332 -12.359000205993652 L 23.673999786376953 -10.963000297546387 L 24.28700065612793 -9.527000427246094 L 24.765602111816406 -8.192000389099121 L 24.81399917602539 -8.057000160217285 L 25.25200080871582 -6.559000015258789 L 25.599000930786133 -5.0370001792907715 L 25.854999542236328 -3.496999979019165 L 26.01799964904785 -1.944000005722046 L 26.08799934387207 -0.38400000333786 L 26.082338333129883 1.1102230246251565e-16 L 26.065000534057617 1.1759999990463257 L 25.947999954223633 2.7330000400543213 L 25.738000869750977 4.28000020980835 L 25.437000274658203 5.811999797821045 L 25.04400062561035 7.322999954223633 M 7.525000095367432 -13.62600040435791 L 6.4039998054504395 -13.63700008392334 L 5.285999774932861 -13.557000160217285 L 4.178999900817871 -13.385000228881836 L 3.0889999866485596 -13.123000144958496 L 2.0250000953674316 -12.772000312805176 L 0.9929999709129333 -12.335000038146973 L 0 -11.8149995803833 L -16.384000778198242 -2.354966640472412 L -20.462608337402344 1.1102230246251565e-16 L -20.472999572753906 0.006000000052154175 L -16.384000778198242 2.366966485977173 L 0 11.82699966430664 L 0.9929999709129333 12.347000122070312 L 2.0250000953674316 12.784000396728516 L 3.0889999866485596 13.135000228881836 L 4.178999900817871 13.397000312805176 L 5.285999774932861 13.569000244140625 L 6.4039998054504395 13.64900016784668 L 7.525000095367432 13.637999534606934 L 8.192000389099121 13.575841903686523 L 8.640999794006348 13.534000396728516 L 9.744000434875488 13.34000015258789 L 10.82800006866455 13.055000305175781 L 11.885000228881836 12.682999610900879 L 12.907999992370605 12.225000381469727 L 13.890000343322754 11.684000015258789 L 14.824000358581543 11.0649995803833 L 15.704999923706055 10.371999740600586 L 16.384000778198242 9.739370346069336 L 16.524999618530273 9.607999801635742 L 17.280000686645508 8.779999732971191 L 17.732919692993164 8.192000389099121 L 17.964000701904297 7.892000198364258 L 18.573999404907227 6.952000141143799 L 19.104000091552734 5.964000225067139 L 19.551000595092773 4.936999797821045 L 19.913000106811523 3.875999927520752 L 20.18600082397461 2.7890000343322754 L 20.3700008392334 1.6829999685287476 L 20.461999893188477 0.565999984741211 L 20.461999893188477 1.1102230246251565e-16 L 20.461999893188477 -0.5550000071525573 L 20.3700008392334 -1.6720000505447388 L 20.18600082397461 -2.7769999504089355 L 19.913000106811523 -3.864000082015991 L 19.551000595092773 -4.925000190734863 L 19.104000091552734 -5.953000068664551 L 18.573999404907227 -6.940000057220459 L 17.964000701904297 -7.88100004196167 L 17.72417640686035 -8.192000389099121 L 17.280000686645508 -8.767999649047852 L 16.524999618530273 -9.595999717712402 L 16.384000778198242 -9.727370262145996 L 15.704999923706055 -10.359999656677246 L 14.824000358581543 -11.053999900817871 L 13.890000343322754 -11.67300033569336 L 12.907999992370605 -12.213000297546387 L 11.885000228881836 -12.670999526977539 L 10.82800006866455 -13.043000221252441 L 9.744000434875488 -13.32800006866455 L 8.640999794006348 -13.52299976348877 L 8.192000389099121 -13.56443977355957 L 7.525000095367432 -13.62600040435791 z" fill="none" stroke="rgb(255,0,0)" stroke-width="0.001mm" />
</svg>